/* XPM */
static char *result[] = {
/* columns rows colors chars-per-pixel */
"60 60 156 2 ",
"   c #3F2D17",
".  c #412B16",
"X  c #422F1A",
"o  c #46311C",
"O  c #4D331C",
"+  c #4C381F",
"@  c #523A16",
"#  c #50361D",
"$  c #533A1D",
"%  c #422F20",
"&  c #4C3522",
"*  c #4E3B24",
"=  c #4A3629",
"-  c #46392F",
";  c #4C3B2C",
":  c #513525",
">  c #533C25",
",  c #5B3F25",
"<  c #54362B",
"1  c #543D2B",
"2  c #5A3E2B",
"3  c #473931",
"4  c #4D3C33",
"5  c #543D34",
"6  c #5B3D33",
"7  c #523D38",
"8  c #603D27",
"9  c #623F2B",
"0  c #57431E",
"q  c #4E422D",
"w  c #544225",
"e  c #5C4226",
"r  c #5C4825",
"t  c #55422D",
"y  c #5C432C",
"u  c #56492C",
"i  c #5B4A2D",
"p  c #4E4036",
"a  c #4F4239",
"s  c #544233",
"d  c #5B4533",
"f  c #554934",
"g  c #5D4A34",
"h  c #54433A",
"j  c #5A463A",
"k  c #564D3A",
"l  c #5C4B3B",
"z  c #5D5035",
"x  c #5D523C",
"c  c #614325",
"v  c #62432B",
"b  c #644A2D",
"n  c #694B2E",
"m  c #60502F",
"M  c #6E532C",
"N  c #634533",
"B  c #684531",
"V  c #634C34",
"C  c #6A4D33",
"Z  c #644639",
"A  c #644D3B",
"S  c #6B4E3A",
"D  c #714F33",
"F  c #645235",
"G  c #6B5335",
"H  c #6D5A34",
"J  c #64523B",
"K  c #6B543C",
"L  c #66593C",
"P  c #6C5A3D",
"I  c #725336",
"U  c #785537",
"Y  c #715C36",
"T  c #785B36",
"R  c #72553B",
"E  c #79573A",
"W  c #735B3D",
"Q  c #7B5C3D",
"!  c #75613E",
"~  c #7B613D",
"^  c #564D42",
"/  c #5D4C42",
"(  c #5C5246",
")  c #614D41",
"_  c #6B4E42",
"`  c #655342",
"'  c #6B5542",
"]  c #655944",
"[  c #6D5B44",
"{  c #65554B",
"}  c #6B564A",
"|  c #665A4A",
" . c #6D5B4A",
".. c #735642",
"X. c #745C44",
"o. c #7B5D43",
"O. c #705649",
"+. c #735D4A",
"@. c #7A5E4A",
"#. c #6D5B51",
"$. c #775A52",
"%. c #7A5D53",
"&. c #6D6145",
"*. c #6F634D",
"=. c #746244",
"-. c #7C6344",
";. c #766845",
":. c #7D6845",
">. c #75624B",
",. c #7B634C",
"<. c #75694C",
"1. c #7C6A4C",
"2. c #6F6154",
"3. c #766351",
"4. c #7C6453",
"5. c #7D6A53",
"6. c #7F6D59",
"7. c #845537",
"8. c #825E3D",
"9. c #82623E",
"0. c #8B663E",
"q. c #85683E",
"w. c #88683F",
"e. c #815E42",
"r. c #825F49",
"t. c #826344",
"y. c #8A6444",
"u. c #826945",
"i. c #8A6A44",
"p. c #82654B",
"a. c #896548",
"s. c #836B4C",
"d. c #8A6A4D",
"f. c #906F46",
"g. c #92694D",
"h. c #86714D",
"j. c #8B734C",
"k. c #90774F",
"l. c #826652",
"z. c #836C53",
"x. c #8B6D52",
"c. c #80655C",
"v. c #846C59",
"b. c #896E59",
"n. c #857253",
"m. c #8C7254",
"M. c #8E7954",
"N. c #86725A",
"B. c #8C755B",
"V. c #917356",
"C. c #927D53",
"Z. c #91765C",
"A. c #937B5C",
"S. c #8F7660",
"D. c #8F7961",
"F. c #917A62",
/* pixels */
"t.d.t.a.d.y.a.-.p.s.R n e b X.-.M M f.j.u.j.s.-.-.-.,.,.>.>.>.+.+.o.p.d.a.U M I C R o.W r.g.7.y.y.e.a.f.a.q.y.w.0.0.0.0.",
"e.d.e.e.e.o.d.o.u.p.G V b G -.=.~ T i.u.~ u.s.u.s.1.s.l.,.4.,.4.4.,.,.l.a.Q C c W o.r.R e.a.7.y.g.e.o.o.Q Q t.t.9.~ 8.8.",
"# , > $ , e ..o.,.,.A V K +.1.,.Q t.-.-.R R ,.o.,.,.@.@.@.+.+.+.$.+.X.o.p.o.C , =.+.,.' D e.r.a...d 1 y > + $ + > > > > ",
"W X.K K y > J +.1.>.V J [ >.l.,.X.s.-.-.R y C 2 y 2 y 1 y 2 s s d j j A X.p.R t ,.>.,...C o.y.o.1 1 j ` '  .*.' O.[ [ [ ",
"D.B.z.N.[ * g >.3.>.g A '  .4.<.X.b.@.@.Z O < # > < : < < 1 < 1 = 4 1 d P 1...i  .&.>.[ F Q a.Q 2 Z %.b.N.Z.F.B.Z.S.S.Z.",
">. .[ 4.J + d <.<.' d k J `  .+.K @.@...N : 1 S 2 1 1 1 5 y d 5 s 7 s j ' >.+.g u J J z J Q a.T v S e.a.o.o.o.o.o.o.o.@.",
"] =.>.<.J > J 3.>.' d l ` ` X.' N ..,...Z y d @.l.l.4.l.v.v.l.4.` / d V +.,.X.V u J f i F ~ u.Q 8 D e.r.r.e.p.e.D R R S ",
"t J K P g t K <.,.' g A X.[ +.[ N O.v...C y > @.z.l.p.p.l.z.,.,.} l s N X.,.X.F +.n.J m R ! i.T 9 B o.l.p.r.o.C , 2 2 2 ",
"$ b P o.C w G @.,.K G +.4.+.K ..V X.,.o.G e N o.@.,.,.,.-.W ..-.Z A Z C o.-.P r L P W P W 9.t.Q v j Z ) l / l j d 5 h 4 ",
"e C R X.C e G X.o.K G K X.W K K V W ,.+.K b N W p.p.-.W b e $ O d N N G o.t.E b R =.P L Y Q 8.Q 1 5 3 3 4 4 4 - 3 3 3 3 ",
"G E E Q I e G ..X.W K K P W [ [ V W +.Q K b b K o.-.-.o.R I G K ' ....W o.o.I b =.=.P G I Q 9.e.A j 6 5 6 d d s j j j j ",
"o.-.o.o.C e G R -.K G W X.[ P ;.J W -.X.P N y B -.-.,.,.p.,.p.p.@.%.p.@.o.Q G e P ' ' J W -.t.p.@.@.....+.@.+.o.X.X.X.+.",
"o.t.@.o.B , C X.,.J z [ =.J z L V [ ..P R V e y N B B S G C S S _ ` ' G C A r t J J ` x ' +.-.p.r.r.p.r.r.r.t.t.Q Q e.o.",
"o.@.o.@.S 2 K <.4.J z | &.x k z g G [ K K A d y > < 2 < 2 2 2 2 ; 1 1 2 e e > & J ( k / ` | X.....o.o.o.Q R R I E E Q 8.",
"....S S Z t A  .` J x x ( k k k s S ' [ X.O._ ' O..._ S S Z 6 d j j f j d d t ; | ( ^ h h j ) A ) ) A A A A V V R K R ' ",
"Z Z d N 1 & s d q k k q q k x f t ` [ O.%.4.%.%.l.%.c.c.%.%.$.$.#.} }  .+. .( / 2.| ^ a 7 5 5 j 7 5 4 4 s d f s 5 t d d ",
"Z 1 1 g ` ` l l g z ` J u L 5.6.j j ) j _ c.%.O.$.%.$.} O.%.$.} #.{ | ` ' ` g ` ` ` ` ` ) j h h a 3 3 3 a s s 5 * = ; d ",
"' d y g A J x A k g J F V =.n.z.V l O.} A y 6 } Z _ Z 2 N N 1 1 = ; q 1 d s > A Z A A '  .` A h a 7 ^ j k ^ j j j f f J ",
"..g y d J ' ' ` J l V g g X.z.s.H F W ;.X.G A -.E o.W G K G V V u J [ ' +.K y +...[ K V J [ [ L ^ l ` ` { ' ' [ ' J J ' ",
"y $ O > i l d u g V F J F X.,.-.i i G H Y W G W W o.G C G H G F y  .,.<.s.W e =.B.m.>.F g J L z d d d g V A G ..S N b N ",
"o.R K X.,.=.' J > V  .,.,.o.K G F F P L F V v C K K B d A S N J > J =.Q 1.E b s.M.M.h.! z m i i 2 y v v 9 9 B G o.o.E Q ",
"m.m.m.A.F.Z.N.z.g K X.+.+.R C K F w m L K C y N B N 2 > 2 y 2 d e b b e b r @ M :.;.! H m m L &.p.s.V.b.b.g.x.V.x.x.d.a.",
"R W Q o.-.,.,.,.S K A b S N n R ! H ~ j.A.C.j.j.t.,.X.E -.+.X.-.z.p.-.-.Q I c Y ~ H M F m F ;.n.o.o.r.e.e.o.o.o.e.o.r.o.",
"~ Q -.Q W +.,.s.y A g v K C e y 0 Y j.:.~ u.~ -.t.p.-.-.p.p.,.,.s.-.z.m.x.u.G Y ~ W P ! P z z ;.o.e.e.Q ..o.o.o.o.o.o.T ",
"Q Q t.t.X.X.,.,.d > X.l.z.r.o.C r ! u.:.Q ~ o.r.o.Q ....o.o.....p.....o.R o.r.R ~ X.P z.5.u i >...e.@...@.@...X.+.+.o.@.",
"C b n G G R -.+.S y @.X.@.@.r.B G ;.s...V B B 9 v v 6 6 2 6 2 2 N v Z o.o.p.r.R ..W K N.F.L z +.@.r...C Z A Z A A A A J ",
"c e , , y R ,.@.y e 4.p.l.z.x.Z +.4.%.) 1 < < : 6 6 6 6 6 7 7 6 < # 9 C o.r.@.B R S d -.z.A V X.+...Z < = = = 4 - = ; ; ",
"I C b , 2 ' ,.,.2 : X.,.p.p.o.N +.>.O.d < 6 Z 6 6 6 6 6 6 6 6 6 6 2 6 2 S o.o.Z W ..G +...> t +.@.$.Z 1 1 s j / { { } } ",
"+.o.X.v , K l.4.g X d A C b C y R W G i , C W ..E @.o.o...@.@.@.X...K y ..o.o.B o.l.o.l.@.2 > ' ....Z 6 s / { } { { } #.",
"..,.@.d > ` v.4.Z . v G K V V v K W K r c K o.t.r.t.o.Q o.r.-.o.@.,.@.v o.Q o.n D E C o.W v v ..S R N 1 d j / ( { { } { ",
"K @.X.6 : } v.3.d X G >.,.W R b K X.R V v K r.r.x.r.@.....@...W ..-.,.y o.Q Q n C E D D C > 9 o.o.o.S N N j h / j ^ j j ",
"S ..' t : +.v.+.A * ' [ K ' ' y J O.[ Z N _ @.l.O.S N v y N d 2 K @.-.e o.Q o.C T V.Z.V.o.$ 2 ..O.o.S 2 6 5 ; 4 4 7 4 5 ",
"g G [ * > +.4.<.t ; `  .[  .` s ` [ _ V V S ..l.S Z Z Z j j s 5 y 4.,.N +.-.R b p.h.n.m.1.G d K +.,...d 5 6 h 7 7 4 4 4 ",
"A W X.y y 1.6.4.K u A ' ` [ ` ) [ +.' N A ..@.l.l.,.,.4.3. .) l A 4.@.y C A V y =.1.s.1.P e y X.X...' N 6 5 5 5 5 5 7 7 ",
"W X.W y e >.,.=.V o 1 d t t s y K I C b n I T ~ t.-.,.s.,.' V y A ,.+.d G V A F V G G J i > y [ -.u.-.o.E X...P ..P ' [ ",
"X.Q G e v ,.d.1.d & g G Z A t > ....D v n C n U I G R W W A y t Z O.@.S ..K K P G L K P ..A b A U T Q T Q -.-.-...X...X.",
"b c b , b t.,.p.A b +.=.[ >.J > @.o.S 9 9 v 8 v v 9 v N N y 2 y A O.4.K ' A K G K K J G J y * > 8 c v 8 v B N B S S S A ",
"c c C n R -.o.o.b y [ P J =.J > X.o...D C C B C S C B B V N N J } +.3.A J A +.[ +.1.4.=.X.F K @.R G C B B Z N B 2 2 2 y ",
"t.o.d.p.d.z.,.+.V t ' &.L >.' u P ~ t.t.a.u.u.s.a.-.-.-.-.~ -.,.X.O.+.g V ` ,.>.G +.=.+.' _ O.z.d.i.t.9.t.t.-.-.p.-.-.-.",
"z.,.l.,.,.,.+.=.g t ` *.[ [ x u r P ~ -.-.-.Q -.-.~ -.u.-.-.=.-. . .+.d g J ,.K P +.+...+.[ X.,.-.~ ~ ~ -.t.:.t.u.p.s.u.",
"4.,.>.>.>. .] J f g x k f u f q s j [ +.$.} ' | $. .` [ [ } +.3. .J f t g ] =.[ J X.+.P X.J G 5.,.-.:.:.u.p.:.:.1.:.;.=.",
"l g l g g g t ; k x x ] ] ( x f q 4 ; ; ; 4 p s 4 ; ; ; 5 s 5 ; ; ; 1 y g A F F y F F V A y y Z G F G J G L F g i y y y ",
"g l k g g k l k g x ` | &.| x f z z z L L ] x z g z z g g P G F g f x  .>.&.L ! P =.>.Q +.' S J s 5 s d A x A l A d d l ",
">.<.<.[ ' >.<.>.k g l ` | L k q u i z ] <.*.] z L &.P J L =.;.P F x J P &.P L L =.1.1.+.E W K J ' ` '  .3.5.5.5.>. . .,.",
">.&.[ J F J J J F V V F J F y > y t ; q l ( ( x x ] | J ' [ P g g z z f z P L u ;.1.s.W V G K R X.P H H ! ;.:.:.Y Y Y -.",
"z.1.>.,.s.1.1.n.Z.B.m.Z.B.m.s.z.>.*.] A J  .3. .| 3.5.6.z.z.X.G J &.&.L &.<.! H n.n.B.1.R P ,.s.m.s.s.h.j.k.C.C.H Y ~ ~ ",
";.H G ! s.:.u.s.h.s.u.d.d.t.u.p.p.z.1.=. .=.=.&.P =.z.B.m.s.t.-.L &.<.<.;.<.<.! h.1.h.s.! R 1.p.,.p.l.z.n.m.m.j.W u.u.u.",
"d.H G ! u.W R -.Q T Q Q 8.8.Q 8.Q -.=.G F J [ [ y F R ;.t.9.q.i.H ! 1.1.;.! ;.:.1.! ;.s.X.K -.=.W o.p.d.t.~ o.~ E p.d.u.",
"~ Y b :.u.Q W ~ 9.8.t.8.8.8.8.8.a.o.o.G d [ +.P J > L s.t.w.9.i.q.:.j.u.~ ;.1.1.;.1.5.>.y L +.X.Q 9.i.i.~ 9.Q Q C o.g.d.",
";.Q b -.-.~ Q Q T Q Q 8.8.9.8.8.e.o.r.S V K  . .] w P s.9.9.w.0.f.q.i.k.h.Y ! n.1.5.5.=.e K ,.p.q.w.w.w.t.t.a.d.D 8.y.p.",
"s.-.b -.-.-.Q ~ Q o.t.t.t.y.t.e.e.o.a.R g ` [ [ ' w W h.-.t.f.y.w.q.u.j.m.F F n.5.5.<.=.t P 4.s.q.q.9.~ Q 9.t.d.Q t.p.t.",
"z.+.b ,.-.-.-.-.Q t.-.o.t.e.8.8.o.e.l.K y J [ &.| w [ z.Q t.y.8.T u.:.-.1.H F 1.<.5.,.=.i P >.;.-.~ 9.~ Q -.t.d.R r.p.-.",
"+.[ d =.>.,.,.,.-.o.X.Q Q Q Q o.@.X.,.A u `  .*.J q [ z.Q t.t.Q Q s.,.-.1.K F n.3.5.<.>.m &.<.! ~ ~ 9.-.t.-.-.-.C W ,.,.",
"+.[ d O.>.,.,.,.,.-.-.-.-.u.s.s.d.p.,.A t A | | g q L ,.,.p.t.s.s.;.-.1.1.F g 6.<.1.<. .u &.<.! :.u.s.j.d.s.p.,.v ..p.p.",
"+.` 1 ` '  ...' ..+.X...@.o.-.X.@.K ' t * l g k q q g J W X.I o...G F ..' y g ] L ] x L q L L L :.u.s.h.x.z.z.s.v P ,.,.",
"` l X s t Z g d y i i V b b v y 1 O *     u f s t s u > y e O y > > t t w 1 1 * t u u z w z z w b m b V G G G K > d N A ",
"A l s l O.3.+.O.i K X.G t y P F K [ J [  .<.x x [ J g d K o.+.@.s.,.+.' J d ; & ; g F u &.u u ! H P P H P ,.X.J A A J V ",
"l A j ) <.6.6.5.[ >.<.,.G P z.1.,.4.' >.<.5.| [  .| J J >.,.-.,.,.+.>.>.$.+.[ [ `  .&.J &.m z ;.h.1.W G G L K V g V g A ",
"l l g V  .>.[ +.+.[ [ [ z F ,.>.1.4.'  . .>.` [ [ [ J J ,.,.o.+.X.+.+.=.3.,.,.>.' J ' F x u F &.! R m r y V V y y d d g ",
"N.S.z.z.N.N.z.z.n.+.G [ V V =.=.,.,.J K ' &.x J ] ' J J +.,...+.X.X.X.+.X.X.` J K l =.&.L m L =.=.:.,.;.5.n.n.5.5.z.l.z."
};
