/* XPM */
static char *result[] = {
/* columns rows colors chars-per-pixel */
"50 60 243 2 ",
"   c black",
".  c #0C0000",
"X  c #190102",
"o  c #340000",
"O  c #3C0000",
"+  c #2C0E0C",
"@  c #091739",
"#  c #000026",
"$  c #341A32",
"%  c #1D2733",
"&  c #471709",
"*  c #531E03",
"=  c #4D120E",
"-  c #621E00",
";  c #592300",
":  c #472319",
">  c #5B2416",
",  c #592719",
"<  c #512913",
"1  c #652E1D",
"2  c #492526",
"3  c #5E2D20",
"4  c #55352B",
"5  c #4D3131",
"6  c #602D21",
"7  c #643223",
"8  c #693A2B",
"9  c #733E2C",
"0  c #164805",
"q  c #005A00",
"w  c #124F07",
"e  c #2D510B",
"r  c #036800",
"t  c #176605",
"y  c #017B00",
"u  c #167700",
"i  c #127519",
"p  c #256B08",
"a  c #25720C",
"s  c #287807",
"d  c #276E10",
"f  c #297411",
"g  c #2C7B13",
"h  c #2C7819",
"j  c #33761A",
"k  c #1A512B",
"l  c #215133",
"z  c #2E6B29",
"x  c #197928",
"c  c #6B462C",
"v  c #75412E",
"b  c #7A412D",
"n  c #784937",
"m  c #795739",
"M  c #6D4435",
"N  c #4E6E37",
"B  c #6C6E3C",
"V  c #625514",
"C  c #0C1D47",
"Z  c #00125F",
"A  c #0F224C",
"S  c #12244D",
"D  c #122247",
"F  c #132652",
"G  c #162955",
"H  c #152C5A",
"J  c #192E5B",
"K  c #182857",
"L  c #1B305F",
"P  c #0E3056",
"I  c #2E2C51",
"U  c #1C3364",
"Y  c #1C3569",
"T  c #1A376B",
"R  c #11336D",
"E  c #223564",
"W  c #21396C",
"Q  c #253B6A",
"!  c #253D73",
"~  c #283F73",
"^  c #313B74",
"/  c #0A4673",
"(  c #2D426F",
")  c #36446C",
"_  c #284279",
"`  c #344A77",
"'  c #3E527F",
"]  c #2A6254",
"[  c #7F5341",
"{  c #776D4B",
"}  c #505371",
"|  c #6C7479",
" . c #565E65",
".. c #814E3B",
"X. c #855A3D",
"o. c #80462C",
"O. c #885747",
"+. c #8C5D4F",
"@. c #8A6946",
"#. c #95684D",
"$. c #96744E",
"%. c #997B55",
"&. c #946753",
"*. c #A66B56",
"=. c #A7745A",
"-. c #B46D58",
";. c #946B61",
":. c #AA7761",
">. c #BA7A66",
",. c #AD7C7D",
"<. c #B95B51",
"1. c #C57D69",
"2. c #07920A",
"3. c #338519",
"4. c #34881A",
"5. c #358B16",
"6. c #3AAD08",
"7. c #2FAF00",
"8. c #3B8D24",
"9. c #3A9321",
"0. c #3E9A24",
"q. c #239930",
"w. c #039524",
"e. c #429628",
"r. c #488839",
"t. c #4A9832",
"y. c #549735",
"u. c #44A22A",
"i. c #45AA2A",
"p. c #49AA2A",
"a. c #4CB12F",
"s. c #4BA535",
"d. c #55AA3A",
"f. c #54B536",
"g. c #4FB92E",
"h. c #5AC033",
"j. c #388E55",
"k. c #549C4A",
"l. c #5AA940",
"z. c #57AE43",
"x. c #739776",
"c. c #72AA6C",
"v. c #5C9E6B",
"b. c #73CA5E",
"n. c #7CCE68",
"m. c #C7AD37",
"M. c #8F9154",
"N. c #A7855A",
"B. c #AA866D",
"V. c #B78668",
"C. c #B18C74",
"Z. c #83A355",
"A. c #C5886D",
"S. c #CC8A73",
"D. c #C08B75",
"F. c #CF9175",
"G. c #D59279",
"H. c #DA957B",
"J. c #D29177",
"K. c #D28C73",
"L. c #D1A57F",
"P. c #96C974",
"I. c #E5D15D",
"U. c #2A398C",
"Y. c #004A84",
"T. c #2C4A85",
"R. c #3C5282",
"E. c #35518C",
"W. c #34518A",
"Q. c #435886",
"!. c #465E92",
"~. c #4B669A",
"^. c #516A9D",
"/. c #5273AD",
"(. c #3C7BCB",
"). c #AD7E88",
"_. c #768C89",
"`. c #5D81BF",
"'. c #72B491",
"]. c #6990CC",
"[. c #8C9A97",
"{. c #8D9494",
"}. c #8EB08D",
"|. c #949AA2",
" X c #939CB5",
".X c #9AA5A5",
"XX c #96A6AF",
"oX c #A4A8B9",
"OX c #B2B6BA",
"+X c #A8B1AF",
"@X c #D49E8B",
"#X c #E69E84",
"$X c #D5AF92",
"%X c #E7A78A",
"&X c #E5B794",
"*X c #F9B898",
"=X c #EFAE91",
"-X c #C6B0A8",
";X c #EBBCA3",
":X c #96CC97",
">X c #B1D58D",
",X c #9FC2A3",
"<X c #B0CFB4",
"1X c #C0DBBD",
"2X c #ECC3A3",
"3X c #FED4AD",
"4X c #FDDBB7",
"5X c #F7C8AB",
"6X c #C3EABC",
"7X c #F8E5AD",
"8X c #D3CA97",
"9X c #9DBBCF",
"0X c #ADB1C3",
"qX c #B8BBCB",
"wX c #ABAFC0",
"eX c #8FB5EC",
"rX c #BCC1CD",
"tX c #B4DAC0",
"yX c #ACD6F3",
"uX c #C1C4D1",
"iX c #C8CCD7",
"pX c #CED1DB",
"aX c #D2D5DD",
"sX c #CDC8C8",
"dX c #F2D5C5",
"fX c #C9E4CB",
"gX c #CFE9D5",
"hX c #FFEDC9",
"jX c #F8F6DD",
"kX c #DADCE5",
"lX c #CCCFE0",
"zX c #DDE2E7",
"xX c #E2E4EC",
"cX c #E2E4E8",
"vX c #EAECF2",
"bX c #E6E9F1",
"nX c #EEF1F4",
"mX c #F1F3F6",
"MX c #F4F5F9",
"NX c #FEFEFE",
"BX c #F6FAF9",
"VX c #F4EEEF",
"CX c None",
/* pixels */
"CXCXCXCXCXCXCXCXCXCXCXCXCXCXCXCXCXCXCXCXCXCXCXCXCXCXCXCXMXxXNXCXCXCXCXCXCXCXCXCXCXCXCXCXCXCXCXCXCXCX",
"CXCXCXCXCXCXCXCXCXCXCXCXCXCXCXCXCXCXCXCXCXCXCXCXCXCXCXxXkXzXkXmXMXnXCXCXCXCXCXCXCXCXCXCXCXCXCXCXCXCX",
"CXCXCXCXCXCXCXCXCXCXCXCXCXCXCXCXCXCXCXCXCXCXCXCXCXCXuXrXmXiXoXxXiXNXNXCXCXCXCXCXCXCXCXCXCXCXCXCXCXCX",
"CXCXCXCXCXCXCXCXCXCXCXCXCXCXCXCXCXCXCXCXCXn.CXCXCXrX<X[.0X{.{.|.oXmXMXCXCXCXCXCXCXCXCXCXCXCXCXCXCXCX",
"CXCXCXCXCXCXCXCXCXCXCXCXCXCXCXCXCXCXs.s.f.g.n.fX6X}.[.|  .} | | _.cXNXCXCXCXCXCXCXCXCXCXCXCXCXCXCXCX",
"CXCXCXCXCXCXCXCXCXCXCXCXCXCXCXCXCXt.9.4.u.a.fXgXNX<X}.[.|.|._.|.uXNXNXCXCXCXCXCXCXCXCXCXCXCXCXCXCXCX",
"CXCXCXCXCXCXCXCXCXCXCXCXCXCXCXCXt.s 3.9.u.i.zX<XgXBX,X[..X|.[.OXkXNXCXCXCXCXCXCXCXCXCXCXCXCXCXCXCXCX",
"CXCXCXCXCXCXCXCXCXCXCXCXCXCXCXt.a f 3.9.s.7.,XvX:X<X<XZ.|..X.XOXxXBXCXCXCXCXCXCXCXCXCXCXCXCXCXCXCXCX",
"CXCXCXCXCXCXCXCXCXCXCXCXCXCXd.3.a f 3.8.u.f.6.,X<X,Xc.k.v.x.}.+XpXCXCXCXCXCXCXCXCXCXCXCXCXCXCXCXCXCX",
"CXCXCXCXCXCXCXCXCXCXCXCXCXCXe.p f f 3.8.0.t.e.u i 2.s j s u s .XvXCXCXCXCXCXCXCXCXCXCXCXCXCXCXCXCXCX",
"CXCXCXCXCXCXCXCXCXCXCXCXCXy.3.a f f 3.8.8.h t i B {   q z p N 0XnXCXCXCXCXCXCXCXCXCXCXCXCXCXCXCXCXCX",
"CXCXCXCXCXCXCXCXCXCXCXCXCXt.s f f g 3.f r r V V %.D.V.[ q j t.}.CXCXCXCXCXCXCXCXCXCXCXCXCXCXCXCXCXCX",
"CXCXCXCXCXCXCXCXCXCXCXCXCX8.p f f f r t B @.@XsX7X7XzX2Xe 2.7.>XCXCXCXCXCXCXCXCXCXCXCXCXCXCXCXCXCXCX",
"CXCXCXCXCXCXCXCXCXCXCXCXCX8.d d d t { :.A.=XsXyXmX7X9XuXN.M.P.:XCXCXCXCXCXCXCXCXCXCXCXCXCXCXCXCXCXCX",
"CXCXCXCXCXCXCXCXCXCXCXCXy.g f j d e >.J.K.*X-XY.yXhX$X,.*X4XhXjXCXCXCXCXCXCXCXCXCXCXCXCXCXCXCXCXCXCX",
"CXCXCXCXCXCXCXCXCXCXCXCX0.d r q 0 o =.H.K.%X2XR.eX;XA.K.=X4X4XjXCXCXCXCXCXCXCXCXCXCXCXCXCXCXCXCXCXCX",
"CXCXCXCXCXCXCXCXCXCXCXl.3.t M.C.[ . 8 >.K.#X*X@X).>.S.G.#X5X3XhXCXCXCXCXCXCXCXCXCXCXCXCXCXCXCXCXCXCX",
"CXCXCXCXCXCXCXCXCXCXCXCXw.%.*X=X1.O.X X *.H.:.-.-.*.S.G.G.=X5X4XCXCXCXCXCXCXCXCXCXCXCXCXCXCXCXCXCXCX",
"CXCXCXCXCXCXCXCXCXCXCXCXq.L.4X%X<.1.O.  #.G.4   5 2 O.S.G.G.*XCXCXCXCXCXCXCXCXCXCXCXCXCXCXCXCXCXCXCX",
"CXCXCXCXCXCXCXCXCXCXCXCXCX=XhX2X<.-.1.:.A.@XO.  X X   : O.+.B.CXCXCXCXCXCXCXCXCXCXCXCXCXCXCXCXCXCXCX",
"CXCXCXCXCXCXCXCXCXCXCXCXCXCX;X4X%X1.A.S.G.G.A.M   . o =.&.N CXCXCXCXCXCXCXCXCXCXCXCXCXCXCXCXCXCXCXCX",
"CXCXCXCXCXCXCXCXCXCXCXCXCXCXCXCX;X@X+.*.G.J.G.A.>.;.{.-X$XP.CXCXCXCXCXCXCXCXCXCXCXCXCXCXCXCXCXCXCXCX",
"CXCXCXCXCXCXCXCXCXCXCXCXCXCXCXCXCXCXo 4 A.S.F.F.=X@X# ;.2Xb.CXCXCXCXCXCXCXCXCXCXCXCXCXCXCXCXCXCXCXCX",
"CXCXCXCXCXCXCXCXCXCXCXCXCXCXCXCXCXCX3   +.A.D.A.H.*XC.&X>XCXCXCXCXCXCXCXCXCXCXCXCXCXCXCXCXCXCXCXCXCX",
"CXCXCXCXCXCXCXCXCXCXCXCXCXCXCXCXCXCXc + 4 V.V.V.V.H.*X&Xf.CXCXCXCXCXCXCXCXCXCXCXCXCXCXCXCXCXCXCXCXCX",
"CXCXCXCXCXCXCXCXCXCXCXCXCXCXCXCXCXCXCXCX5 { @.@.N.C.B.N h.CXCXCXCXCXCXCXCXCXCXCXCXCXCXCXCXCXCXCXCXCX",
"CXCXCXCXCXCXCXCXCXCXCXCXCXCXCXCXCXCXCXCXk.w.k % { b.w.j.v.CXCXCXCXCXCXCXCXCXCXCXCXCXCXCXCXCXCXCXCXCX",
"CXCXCXCXCXCXCXCXCXCXCXCXCXCXCXCXCXz.d.d.f.a.a.k./ / s.h._.CXCXCXCXCXCXCXCXCXCXCXCXCXCXCXCXCXCXCXCXCX",
"CXCXCXCXCXCXCXCXCXCXCXCXCXCXd.a.f.a.p.i.p.a.a.h.f.` T.j.n.}.CXCXCXCXCXCXCXCXCXCXCXCXCXCXCXCXCXCXCXCX",
"CXCXCXCXCXCXCXiXbXCX7.z.f.f.a.i.p.p.u.e.e.e.e.u.g.s.^ U.v.'.9X7XCXCXCXCXCXCXCXCXCXCXCXCXCXCXCXCXCXCX",
"CXCXCXCXCXCXuXqXwXbXfX7.f.a.i.e.e.9.5.g f d g 3.9.a.]  .I.,X(.|.CXCXCXCXCXCXCXCXCXCXCXCXCXCXCXCXCXCX",
"CXCXCXxXvXbXMXmXaXOXBX<X2.s.9.3.3.g z d 0 0 t f f 9.8.I m.I./.].CXCXCXCXCXCXCXCXCXCXCXCXCXCXCXCXCXCX",
"CXCXkXbXzXMXNXNXNXvXpXmXc.y j j z r.CXCXl 0 e p h 5.z Z Z ^ T.`.CXCX^./.].CXCXCXCXCXCXCXCXCXCXCXCXCX",
"CXuXqXqXaXNXNXNXNXNXxXkX+Xq k.CXCXCXCXCX) 0 p s s z H ( ( _ T.T.` _ T.T.E.].eXCXCXCXCXCXCXCXCXCXCXCX",
"iXoXoXoXaXNXNXBXNXNXnXpXuXCXCXCXCXCXCXCX) J k k l H T _ _ _ E F K L E W T R ].eXCXCXCXCXCX#.V.CXCXCX",
"uXoXXX XkXVXqXiXvXNXbX0XCXCXCXCXCXCXCXCXCXE D S H U W W Q L F L J J J Y ! _ R /.eXCXCX[ 9 b b A.4XCX",
"CXuXqXoXpXMXiXoXxXNXCXCXCXCXCXCXCXCXCXCXCXE S L U Y W W K F L J J H J L U W ~ ! /./.} - , 9 n = $XCX",
"CXCXiX0XoXiXqXuXvXbXCXCXCXCXCXCXCXCXCXCXCXE F J J Y Y G F J G G K J J L L U W ~ ! U.I * 7 9 o.- >.hX",
"CXCXCXCXqXqXqXxXkXCXCXCXCXCXCXCXCXCXCXCXQ.L F L U Y K K K G G K J J S J U J U Y _ _ I - 7 9 9 > #.$X",
"CXCXCXCXCXkXlXCXCXCXCXCXCXCXCXCXCXCXCXCX' L F H J J K K F F G G G H F L J L J U T T 2 1 7 9 1 O.V.CX",
"CXCXCXCXCXCXCXCXCXCXCXCXCXCXCXCXCXCXCXCXQ.E F H J G G F F F G S U ` CX` ! H L J R I ; 3 7 , O.N.CXCX",
"CXCXCXCXCXCXCXCXCXCXCXCXCXCXCXCXCXCXCXCXCX( S F F F F S F S A W ' CXCXCXR.Y J H J : > 3 6 X.N.CXCXCX",
"CXCXCXCXCXCXCXCXCXCXCXCXCXCXCXCXCXCXCXCXCX) A F F S S S S A ( Q.CXCXCXCXCXR.U P 2 * , > n CXCXCXCXCX",
"CXCXCXCXCXCXCXCXCXCXCXCXCXCXCXCXCXCXCXCXCXE @ S S S S S A ` CXCXCXCXCXCXCXCX} $ * : O m N.CXCXCXCXCX",
"CXCXCXCXCXCXCXCXCXCXCXCXCXCXCXCXCXCXCXCX) D @ @ @ D D C ` CXCXCXCXCXCXCXCXCX..1 & O c $.CXCXCXCXCXCX",
"CXCXCXCXCXCXCXCXCXCXCXCXCXCXCXCXCXCXCX) G @ @ @ D F A _ ^.CXCXCXCXCXCXCXCXCXCXO.8 m $.CXCXCXCXCXCXCX",
"CXCXCXCXCXCXCXCXCXCXCXCXCXCXCXCXCX` ( G F F F G U E T E.CXCXCXCXCXCXCXCXCXCXCXCXCXCXCXCXCXCXCXCXCXCX",
"CXCXCXCXCXCXCXCXCXCXCXO.#.;.) ( ( J S J G J L U Y E E./.CXCXCXCXCXCXCXCXCXCXCXCXCXCXCXCXCXCXCXCXCXCX",
"CXCXCXCXCXCXCXCXCXCX$., 3 4 P H A H K J J J Y Y Y U.^.CXCXCXCXCXCXCXCXCXCXCXCXCXCXCXCXCXCXCXCXCXCXCX",
"CXCXCXCXCXCXCXCXCXCX@.& & $ H L L H J J L Y Y Y ` ~.CXCXCXCXCXCXCXCXCXCXCXCXCXCXCXCXCXCXCXCXCXCXCXCX",
"CXCXCXCXCXCXCXCXCXCX@.3 & & F J J J U U E Y ! R.~.CXCXCXCXCXCXCXCXCXCXCXCXCXCXCXCXCXCXCXCXCXCXCXCXCX",
"CXCXCXCXCXCXCXCXCXCXM.c & & I P L Y Y Y Y T.!.CXCXCXCXCXCXCXCXCXCXCXCXCXCXCXCXCXCXCXCXCXCXCXCXCXCXCX",
"CXCXCXCXCXCXCXCXCXCXCXc = < 2 H E W W _ Q.CXCXCXCXCXCXCXCXCXCXCXCXCXCXCXCXCXCXCXCXCXCXCXCXCXCXCXCXCX",
"CXCXCXCXCXCXCXCXCXCXCXn > 3 < $ P W ` !.CXCXCXCXCXCXCXCXCXCXCXCXCXCXCXCXCXCXCXCXCXCXCXCXCXCXCXCXCXCX",
"CXCXCXCXCXCXCXCXCXCXCXm > 9 ..9 $ T.CXCXCXCXCXCXCXCXCXCXCXCXCXCXCXCXCXCXCXCXCXCXCXCXCXCXCXCXCXCXCXCX",
"CXCXCXCXCXCXCXCXCXCXCX[ , 9 X.=.*.{ CXCXCXCXCXCXCXCXCXCXCXCXCXCXCXCXCXCXCXCXCXCXCXCXCXCXCXCXCXCXCXCX",
"CXCXCXCXCXCXCXCXCXCXCX@., 8 ..*.:.*.CXCXCXCXCXCXCXCXCXCXCXCXCXCXCXCXCXCXCXCXCXCXCXCXCXCXCXCXCXCXCXCX",
"CXCXCXCXCXCXCXCXCXCXCX@., 6 b ..*.CXCXCXCXCXCXCXCXCXCXCXCXCXCXCXCXCXCXCXCXCXCXCXCXCXCXCXCXCXCXCXCXCX",
"CXCXCXCXCXCXCXCXCXCXCX%.7 * 1 b +.CXCXCXCXCXCXCXCXCXCXCXCXCXCXCXCXCXCXCXCXCXCXCXCXCXCXCXCXCXCXCXCXCX",
"CXCXCXCXCXCXCXCXCXCXCXCXO.8 n O.CXCXCXCXCXCXCXCXCXCXCXCXCXCXCXCXCXCXCXCXCXCXCXCXCXCXCXCXCXCXCXCXCXCX"
};
