/* XPM */
static char *result[] = {
/* columns rows colors chars-per-pixel */
"60 60 222 2 ",
"   c #00070E",
".  c #000115",
"X  c #000D15",
"o  c #0C0C14",
"O  c #00001A",
"+  c #000D1B",
"@  c #180716",
"#  c #140D15",
"$  c #001416",
"%  c #0C1414",
"&  c #041917",
"*  c #00141A",
"=  c #0D141B",
"-  c #011A1D",
";  c #0C1B1C",
":  c #141315",
">  c #1B1615",
",  c #131817",
"<  c #1C1817",
"1  c #14151A",
"2  c #1D161A",
"3  c #141B1C",
"4  c #1C1C1B",
"5  c #391F0F",
"6  c #2C0617",
"7  c #221515",
"8  c #2B1515",
"9  c #231916",
"0  c #2C1B16",
"q  c #221718",
"w  c #221E1C",
"e  c #2B1D1B",
"r  c #341416",
"t  c #3C1414",
"y  c #341A15",
"u  c #3C1C16",
"i  c #321D19",
"p  c #3B1E19",
"a  c #16201F",
"s  c #1D201F",
"d  c #24201F",
"f  c #2B211E",
"g  c #3C2115",
"h  c #3C2A16",
"j  c #34221D",
"k  c #3C221B",
"l  c #000A21",
"z  c #001621",
"x  c #011D21",
"c  c #0C1C21",
"v  c #001F28",
"b  c #131E21",
"n  c #1B1E21",
"m  c #221F20",
"M  c #012224",
"N  c #0C2223",
"B  c #002228",
"V  c #142223",
"C  c #1C2223",
"Z  c #132628",
"A  c #242322",
"S  c #2A2523",
"D  c #252827",
"F  c #2B2827",
"G  c #252929",
"H  c #2C2A29",
"J  c #322522",
"K  c #392521",
"L  c #312825",
"P  c #3C2924",
"I  c #322C2A",
"U  c #37312F",
"Y  c #353130",
"T  c #471416",
"R  c #431D15",
"E  c #4B1D15",
"W  c #431E19",
"Q  c #4A1E19",
"!  c #541C15",
"~  c #5C1E14",
"^  c #561D18",
"/  c #641816",
"(  c #6C1D16",
")  c #741E16",
"_  c #432116",
"`  c #4B2215",
"'  c #492C17",
"]  c #44231B",
"[  c #4B231A",
"{  c #4C2A1C",
"}  c #542216",
"|  c #5B2416",
" . c #542B16",
".. c #5C2C15",
"X. c #53241A",
"o. c #5C2419",
"O. c #542A1C",
"+. c #5C2A1A",
"@. c #473317",
"#. c #5D331B",
"$. c #5A361B",
"%. c #642416",
"&. c #6B2415",
"*. c #622D16",
"=. c #6B2B15",
"-. c #632519",
";. c #6A2519",
":. c #632B1B",
">. c #6B2A1A",
",. c #752615",
"<. c #7B2514",
"1. c #742B16",
"2. c #7C2B16",
"3. c #732618",
"4. c #7D261A",
"5. c #742C1A",
"6. c #7C2B1A",
"7. c #643916",
"8. c #64321B",
"9. c #6A321B",
"0. c #6D3B1A",
"q. c #743515",
"w. c #7D3414",
"e. c #7B3916",
"r. c #74341B",
"t. c #7B331A",
"y. c #733B1B",
"u. c #7B3B1B",
"i. c #462822",
"p. c #512721",
"a. c #4B3220",
"s. c #5B3520",
"d. c #643320",
"f. c #723120",
"g. c #624315",
"h. c #64441B",
"j. c #6D4619",
"k. c #74431B",
"l. c #7C4718",
"z. c #775619",
"x. c #754423",
"c. c #7B4E26",
"v. c #7D5722",
"b. c #832515",
"n. c #8C2614",
"m. c #832915",
"M. c #8C2B16",
"N. c #832C19",
"B. c #882E19",
"V. c #922615",
"C. c #932B15",
"Z. c #9B2B17",
"A. c #9C2C15",
"S. c #912D1A",
"D. c #8A3616",
"F. c #833815",
"G. c #83331A",
"H. c #8B331A",
"J. c #823B1B",
"K. c #8D3B1A",
"L. c #953316",
"P. c #9C3416",
"I. c #923B17",
"U. c #9C3B16",
"Y. c #93341A",
"T. c #9D351A",
"R. c #933C1C",
"E. c #9B3B1A",
"W. c #A22C16",
"Q. c #AD2C14",
"!. c #B32B15",
"~. c #BA2F15",
"^. c #A43315",
"/. c #AD3315",
"(. c #A33519",
"). c #AB3618",
"_. c #A43B19",
"`. c #AA3B18",
"'. c #B23115",
"]. c #B53B18",
"[. c #C53114",
"{. c #864418",
"}. c #8A431A",
"|. c #83491B",
" X c #8C4B1B",
".X c #994416",
"XX c #9B4B16",
"oX c #93441A",
"OX c #964818",
"+X c #8C5517",
"@X c #84521D",
"#X c #885919",
"$X c #995618",
"%X c #945A19",
"&X c #A44A16",
"*X c #A44618",
"=X c #AC4C1A",
"-X c #B74917",
";X c #A15316",
":X c #AE5316",
">X c #AB531A",
",X c #A85919",
"<X c #B6581A",
"1X c #91621D",
"2X c #956819",
"3X c #A5641A",
"4X c #A8641A",
"5X c #BA6619",
"6X c #AA7B19",
"7X c #B7721C",
"8X c #885C2C",
"9X c #965921",
"0X c #956326",
"qX c #AB6F2A",
"wX c #AA7628",
"eX c #C44516",
"rX c #D25016",
"tX c #D05F1A",
"yX c #C46116",
"uX c #CB7E19",
"iX c #BE841B",
"pX c #C8921A",
/* pixels */
"[ ;.X.2.&.e A D w w < 7 X.X.[ j * V C > V 6.&.& 9 q I S q w A w f S S ; y rXU.X w d w 4 y 7X#X# Z A d d w A A w S w > F ",
"& ( /.X.V 4 S H A 4 D D d j } | %.O.f 2 . ! >.* * $ - V A % 4 3 - * o & b.!.9 C S S A j X.g.%X9.8.b n 2 A m C ] J G w m ",
"A 4 &.S H w D F D m F H A 4 C ; ^ L.n.&X3X:X^.-.S.=.} ] S e 3 i u.:.W | S.3.- S H S c +.9.O O j 0.x.w w A A 4 R j H w > ",
"A s u k G S A m q A m A 4 w I - ;.%.8 7.4X;X) m.C.<.T.T.6.6.>.E.=X} ! | [ W.^ M S w n _ ] s f 3 O c.8X+ D w w 9 < w 0 A ",
"F A 9 u j V q 4 4 4 w F w w c o.G., , x ) T X & - v e u u u [ [ # - C ; * B.,.- S A A 4 3 A w d w X 0Xv.+ f A A F w w H ",
"H I - p V.[ - d S S m F A A x m.o.& 9 V Y.o.- w S I A , 3 3 V V w m A f * e.F.* F 4 d d < H A w A V h 3X' c F S F G m m ",
"A - i M.&.o.>.3 C I S q 4 - o.H.w 4 m q <.Q c m 4 w I w S w S S H D F S - P.2.- L 4 A w 4 A S A 4 S O {.{.. _ 9 m S H 4 ",
"; | ,.p.M 3 o.&.w C C b y e t.] n S V ] J.0 4 A A A G S A A e A S S 4 4 w W.} - L w A d d A A 3 A 4 e |.@.n J w A m A F ",
"Q m.j N S w N o.6.f j :XD.u +.3 S d * o.K.n A < w w k w S G A w 4 , 0 e [ M.y 3 S d 4 4 A L A [ [ O h.0XO D A S H A > C ",
"6.w b w > A H - [ n.eXXXi < q A A d * 1.J.- S w 3 W >.e R { C A w 4 e = T <.; S 4 A w w 3 :.>.i f . z.2Xl A 4 A S q b u ",
"i 3 w A A A 4 w * <.M.O 1 w A S w w * K.r.X e D A S o.j 4 O.0 , S S 9 . }..X, 3 > S A 4 4 f } < 4 * D.q.4 P S 4 b n C t.",
"4 A S H H A q w ; M.%.& f 4 w D w 4 e W.X.& S d 4 e w w A w e A A e X $.uX{.9.$.f 4 F q 4 A A S b u A.i 0 u X.[ [ 3 X.>.",
"< G S d 4 w I H - n.b.X w d w S S b p E.j 4 w A A d 4 S A 4 4 m 4 f . >XXX+ w l.z.= C G , S S H - b.V.; A 3 w i ! ,.K.i ",
"j w 3 C q D d w 3 e B.} , S 3 & C & k oXe , w D A 4 S m A H 4 w w + [ -Xt ; A X d.r.Q j f d 4 L & n.;.M S m D C - k t.>.",
"X.} [ w C A 4 4 w * %.T.: C p ] ] 9 Q D., S D w w 4 w 4 4 4 w S 4 9 5X|.+ f < w n X.o.K { ] d - o 1.i V H A w w w C C u ",
"m S [ o.w 3 S ] j 0 % B.1.+.5.t. Xq.OX XO n S w w 3 - C s A C 4 O %X7X+ d 4 A A S c n n w X.O.[ t.Y.0 4 S m 4 w m f w & ",
"G A - Q >.d j [ O.+.0 G.Y.w w 4 j 8 j.@Xj.h   d , j r.G.,.[ ] W t -X| * w w D F S A S A w e p [ r.E.u & e 4 w A F d w F ",
"d w d 3 O.O.+.j C f * &.V.& A 4 4 s , . 2XpXz.. a.k.:.Q i.J y ` V.!.% d 4 A A w A < q w 4 n C ; @ U.[ & S 4 A S S F w A ",
"S q w e * +.G.n G S $ u ^.W A A w G 3 u $X#XwXwX@Xm x 3 C A A N y V.k V S w A A 4 A S q 4 S S 4 g $X] N S S A x - 4 w 3 ",
"N G f ; m t.X.$ w A n < ,.[ N A C y 2 y.+.O : z.#X[ K S S F H U N ! } & S A w D w w S G w w A C j ,XO.B H * s s.#.r.r.j ",
"d.j - -.H.u ; 4 w w 4 , [ Q w e ] 6.C.`.u 4 4 O 1 { +.< A H S S A i } m A A C s S w 4 d A F F 4 ; {.' X j >.}.|.8.+.] d.",
"9.J.;.,.i.; w w A A F b [ >.| :.o.y E ;.6.>.a C * + [ i 3 D S G C 0 :.e 4 j ] j n s w 4 D w F 4 u D.:.1.G.G.X., x b 3 w ",
"* ..-X] v S A w A D A 7 >.i.4 q 4 < * M C >.-.X.9.#.8.[ $ 4 A S 4 q 5.R 7 w 0 e i k n 4 4 w A S 2 XXy.p 0 $ X w S < < C ",
"3 f ,Xj < w A S A 4 , 5.O.Z d $ ] [ 4 w A - t.1.#.x.9X|.= w A S C ] o.&.<.~ v C >.[ & w w H S w c 7.+X+ < < S w 4 w w A ",
"+ @.8XX = 4 9 S S 3 J.>.c A w D J S A 4 S 3 y :.1 x _ K.K V A C ] _ C i ~ _.X.2 +.d w w Z ; $ ; x W tX| . 9 4 4 j p.s d ",
"* s.qX..8 * * $ O 9.|.o A F 4 S A A D < A A ; [ Q x %.Z.k X.| X.k A F S * u.:X` X ; x * i _ ] W >.L.L.eX .X S A k ] C H ",
"z 0.0Xe.R.6.8.#.7.2Xm b w 4 A 4 A D < d d A A :.k - k >.y e j ] f D 4 H I + y.3XX.y >.V.U.$XK.M.2.#.+ XX<X1 A F A 4 ] S ",
"* J.*.. W ;.e.f.3XpX{ m A A q A S 4 w H A S G p.[ A s =.u & s d f D S S A F b  .2.-X`.2.R 0 4 d * b m . `.3.- F 4 0 L D ",
">.D.e A : x M X . #X1Xl I d < S S m D w A H A A [ ; f F.] C L S d H Y Y S D V . oX*XO * ; , d d f d > < &.b.x A : [ i.H ",
"-X` ; d A S F 9 . 7.%X* S d D S S A A S A d d - =.&.@.8Xb C A G 4 3 D F C A *.;X;Xt % e w d F d d d w k ` S.0 i d w I C ",
"5.3 S A 4 F A 9 X 8.oX; f w f w 9 w w S A < > -.n.>XqX9X@ i 0 y w i 9 X R &.w.0.* s f f d 4 A H F : A w q Q.,.$ w d A j ",
"W < G d < F d 9 * +.Z.* % , + . . x * x N x } | > k 7.:Xw.! t.H.>.+.:.:.N.t * x A S S w d 4 A F d d F L - b.n.$ q [ ] o.",
"o.k S w I S w 4 3 M.'.~ | R g.+X$X.Xw.=.X.5.o.* , R @ 2 J > 1.+.u w 0 } Y.u V S w D d 4 d A S A w d S C < :.f.] 4 - < i ",
"m.6 l * b : 7 , W !.'.Q.M.5XuX$XOX.X.XC.,.C.M.5.4 w J F M N.<.* d w > * 1.E.A A w w A A A d H F < < M K >.+.k | S.X.$ $ ",
"P.;Xj.:.[ 0 , $ ] } $ w   XX;X. X . c a : 3 w K.t.z F I e `.:.* S A S 9 $ Y.6.- 9 > q A d w I A * X 3.(.X.% 4 ; b.^.1.3.",
"q.5X+X*X(.T.N.;.1.3.; q X M.eX< d w d d A S 4 1 F.x.m c k G.f D S A A u 7 | :Xj 1 S d A S w 1 * :._.).-.x 4 d A M m X.-.",
"y.8.O 8 i W E E ! W.E , ; ! [.! V F S A w S S 4 m x.y.2 :.X.V S w D F m 9 8 >X{.+ S d q f .  . X2.t.4 * A S A w F D V M ",
"XXs.- S G x ; ; X A.;.M j $ Z.^.. A S d 4 w G A w * [ M.>.$ d 4 S F S A w = 1.X.& d c 4 x h iXl.. & A f d d A S A > S S ",
"D.] 4 S S S S ; :.L.i A ; o 5.-XOXf C F d w S F < 8 0 &.i.C q A F D A I M Q ].X.- e W u X.>X%X: j e j w 4 4 D D w > w A ",
".Xr n A A 4 9 * r.<Xu * ..G.*.6 -X-Xw - A A f M o.S.1.w 4 A A 4 w m w G i &.L.I.u.=X^.Q.^.K.} 0 w S w 4 w w d A 4 4 A F ",
"G.J A d A S S 1 O k.k.Q F.t.> < 6 u.U.t - S - ! M.Q S 3 Q ] C m S A < 9 m.X.* u t.+.y <.Z.  9 q w S A d w m 4 w A A w A ",
">.j V w d A A J O.l. X:.n 4 e A s X | Y.R $ [ 2.] x A a ] k n w G H 3 8 E.W * f ; + & :./.y $ w m k k S A 4 s d A H A d ",
"o.L w f d 3 0 #. .4Xy.. w d s m D f * %.Z.} r.p b S A w 4 4 S S i S V e <X}.W < 4 d f % T.^.* 9 A A f S A d n 4 4 A A A ",
"] c , + n f k w x ' E.T & d d e p A S - Z.].1 ; f A 4 A w > A S y f X e. X' t.9.j f A N p Q.[ 3 e A m S w J ] ] ] k ] [ ",
"[ w J h.$.j w A f * ( Z.3 w A J O.4 m D b *XK.+ A 4 i j n S S G A 9 < (.1.+ e k { [ j j * X.;.& i J 4 w 4 w j J L S F j ",
">.>.9.pXg.O F A q 3 Q Z.e 4 A d +.e 3 q n e /.~ N U [ j b D A C j i - .X=.* j = i.] 9 0 4 4 6.} & _ A G A 4 A A s A H d ",
"i # @.6X@.b S d d C W b.f s A 3 +.p 4 w J * <.C.* V i 0 i R y g | p * *X+.* u +.8.f w w e j ] ).>.* f d A w w w d A H A ",
"4 m 1 j.' ; f w S Z } G.d d S c :.+.* w ; * 7 !.M.=.S.<.` &.&X{.E.Z.3.Q.p 3 4 j +.9 f k ] i v ;.'.] ; d d : D Y d A F j ",
"A Z . #Xh.O f < S - >.G., A S 4 8 &.| y ` <.A.V.S.G.>.j - X.=X_ < g H.>.* w 9 $ =.X.x L w 4 e * -.B.$ d S q 4 A w A < ` ",
"C +.j.iX@.- S 4 w M 5.&.* f n * ` -X-X&X.XW.( $ * X & 3 c [ ,X5 X 3 e w 4 < f *  XJ.z A A w m S & b.&.* * - , 4 d d A A ",
"G.G.0.8X .= A d S - >.} * + k | ,X,X7 F.+X. $ 7 S w < k J C }.*.X j K J D A 4 * e.9.o.] A A A S - B.^.b.U.w.r : * w A D ",
"+.1 = O ` r.- d S c ` Q e e.K... .* + g >X} ; d D w , ] k * } _.Q 3 D 4 w s j p.+.$ 0 ] ] j < < 8 /.<.%.I.>...,XG.< w r.",
"- F F F w t.+.x A a -.B.r.J.] x 3 w f x ;.M.A A 4 4 4 D 3 r.oXP.P.4 A q w f [ { j A s 3 f ] f & ! W.e x x x j 0.K.X.9.u.",
"f d A A n 4 ` 1.] * &.>.q * ; S S D w S Z b.] - q 4 w w e O.y   *X5.M A j j < 3 w F A F 4 9 ] . b.L.v f f f < v $ y i g ",
"D > > 4 D A 3 O.` ..j - 4 f w w m A 4 4 w V.] $ w A w F I 4 > X >.Y.$ S S A A m < d A 4 A d . ..tX&.- S A 4 w S 4 j p 4 ",
"H S A A S A f B j ,X7.* d d A w w 4 A C u W.u V S w A F I f i % p E.Q c S 4 A S 4 d A d f $ / eXl.& S A S D S D D J +.A ",
"A S H A A H F 3 u.8.9 S 4 A S 4 S w J G X.Z.f C f w w w 4 4 e 9 X 6.H.* S w A V n n S S = @.yX( * I A 4 S d d F F D 9.] ",
"V S D A d H V | >.c p w w S D 4 S C j i 9 V.[ - w J S S 4 e { 4 V p `.Q - w w p u i + + l wX1XO S w S w 9 7 < 4 A C ] >.",
"} Z S S C , | ;.< C ] ] D w < w 4 w w w - n.&.- i S w G A J P D F & >.6.0 R !.].=X}.g.g.+XqXo w 4 4 S A 4 : A A 4 A V X.",
"6.i.G A W &.X.b C A D [ f 1 A H > A w w V b.4.M i w A S A S , w H w $ ] X.~ ~.-...T 1XiX<Xw.* f A A d d w A A S A w D A "
};
